<?xml version="1.0" encoding="utf-8"?>
<!-- Generator: Adobe Illustrator 27.5.0, SVG Export Plug-In . SVG Version: 6.00 Build 0)  -->
<svg version="1.1" xmlns="http://www.w3.org/2000/svg" xmlns:xlink="http://www.w3.org/1999/xlink" x="0px" y="0px"
	 viewBox="0 0 750 500" style="enable-background:new 0 0 750 500;" xml:space="preserve">
<g id="BACKGROUND">
	<g>
		<g>
			<radialGradient id="SVGID_1_" cx="382.3268" cy="261.589" r="621.1734" gradientUnits="userSpaceOnUse">
				<stop  offset="0" style="stop-color:#0051DC"/>
				<stop  offset="0.9944" style="stop-color:#051936"/>
			</radialGradient>
			<rect style="fill-rule:evenodd;clip-rule:evenodd;fill:url(#SVGID_1_);" width="750" height="500"/>
		</g>
		<path style="opacity:0.31;fill:#051936;" d="M0,0l-0.001,173.18c34.448,25.206,94.857,17.425,122.381-17.574
			c43.442-55.24,62.992-100.361,120.189-87.974c22.572,4.888,77.319,48.482,166.608,37.341
			c88.081-10.99,87.054-145.026,152.707-19.165C581.976,124.323,667.012,193.415,750,152.563V0H0z"/>
		<g style="opacity:0.31;">
			<path style="fill:#051936;" d="M349.856,457.837c-71.093,0-121.395-112.861-229.123-89.245S8.826,500,8.826,500H750v-65.704
				c-64.209-106.373-144.498-111.863-207.473-79.587C479.12,387.205,432.964,457.837,349.856,457.837z"/>
		</g>
	</g>
</g>
<g id="OBJECTS">
	<g>
		<g>
			<g>
				<g>
					
						<text transform="matrix(1 0 0 1 254.7498 233.0063)" style="fill:#FFFFFF; font-family:'Montserrat-Medium'; font-size:16.0778px;">DIA DE LA INDEPENDECIA</text>
				</g>
				
					<text transform="matrix(1 0 0 1 254.7052 270.5271)" style="fill:#FFFFFF; font-family:'Montserrat-Black'; font-size:37.529px; letter-spacing:2;">COLOMBIA</text>
			</g>
		</g>
		
			<rect x="245.07" y="214.662" style="fill:none;stroke:#FFFFFF;stroke-linecap:round;stroke-linejoin:round;stroke-miterlimit:10;" width="259.86" height="70.675"/>
	</g>
	<g>
		<g>
			<g>
				
					<linearGradient id="SVGID_00000054225291892199528170000018435036193322772611_" gradientUnits="userSpaceOnUse" x1="187.373" y1="-64.178" x2="329.1254" y2="165.421">
					<stop  offset="0.0168" style="stop-color:#F87200"/>
					<stop  offset="0.9888" style="stop-color:#F8E545"/>
				</linearGradient>
				<path style="fill:url(#SVGID_00000054225291892199528170000018435036193322772611_);" d="M0,141.279
					c0,0,86.15,47.098,124.911-54.754c16.441-43.203,37.531-47.102,90.116-31.718C265.24,69.497,480.543,140.408,541.216,0H0
					V141.279z"/>
				
					<linearGradient id="SVGID_00000133488138222383358680000016686409906072274601_" gradientUnits="userSpaceOnUse" x1="145.2095" y1="-116.6765" x2="249.8336" y2="94.914">
					<stop  offset="0.0168" style="stop-color:#F87200"/>
					<stop  offset="0.9888" style="stop-color:#F8E545"/>
				</linearGradient>
				<path style="fill:url(#SVGID_00000133488138222383358680000016686409906072274601_);" d="M0,98.081
					c0,0,76.31,26.433,101.098-28.051c12.394-27.242,33.188-36.961,54.662-41.161c76.722-15.005,100.364,25.614,175.09,27.676
					C437.133,59.477,454.302,0,454.302,0L0,0V98.081z"/>
				<g style="opacity:0.18;">
					<path style="fill:#F87200;" d="M0,80.543c0,0,62.664,21.706,83.021-23.035S130.216,0,174.833,12.756
						C226.948,27.655,255.674,16.471,255.674,0H0V80.543z"/>
				</g>
				
					<path style="fill:none;stroke:#FFFFFF;stroke-width:0.8124;stroke-linecap:round;stroke-linejoin:round;stroke-miterlimit:10;" d="
					M127.837,79.192c0,0,184.505,86.822,246.173-79.192"/>
				
					<path style="fill:none;stroke:#FFFFFF;stroke-width:0.8124;stroke-linecap:round;stroke-linejoin:round;stroke-miterlimit:10;" d="
					M0,109.427c0,0,50.02,23.526,84.272-3.366S112.66,4.548,175.003,20.326C226.845,33.447,269.145,44.214,269.145,0"/>
			</g>
			
				<path style="fill:none;stroke:#FFFFFF;stroke-width:0.8124;stroke-linecap:round;stroke-linejoin:round;stroke-miterlimit:10;" d="
				M0,56.061c0,0,63.118,9.531,63.118-56.061"/>
		</g>
		<g>
			<g>
				
					<linearGradient id="SVGID_00000124140267989684965780000000578779569923184019_" gradientUnits="userSpaceOnUse" x1="939.094" y1="356.2956" x2="1060.6353" y2="553.1582" gradientTransform="matrix(0 1 -1 0 1081.4244 -907.8499)">
					<stop  offset="0.0168" style="stop-color:#F87200"/>
					<stop  offset="0.9888" style="stop-color:#F8E545"/>
				</linearGradient>
				<path style="fill:url(#SVGID_00000124140267989684965780000000578779569923184019_);" d="M750,134.25V0H584.024
					C584.024,0,594.91,143.682,750,134.25z"/>
				
					<linearGradient id="SVGID_00000170273218256867358160000008076269429158840493_" gradientUnits="userSpaceOnUse" x1="914.8467" y1="281.0555" x2="1024.2124" y2="502.2353" gradientTransform="matrix(0 1 -1 0 1081.4244 -907.8499)">
					<stop  offset="0.0168" style="stop-color:#F87200"/>
					<stop  offset="0.9888" style="stop-color:#F8E545"/>
				</linearGradient>
				<path style="fill:url(#SVGID_00000170273218256867358160000008076269429158840493_);" d="M750,123.276V0H629.726
					C601.247,79.134,684.903,138.479,750,123.276z"/>
				<g style="opacity:0.18;">
					<path style="fill:#F87200;" d="M692.492,83.021C726.158,104.492,750,91.7,750,91.7V0h-80.543
						C669.457,0,651.049,56.589,692.492,83.021z"/>
				</g>
			</g>
			
				<path style="fill:none;stroke:#FFFFFF;stroke-width:0.8124;stroke-linecap:round;stroke-linejoin:round;stroke-miterlimit:10;" d="
				M693.939,0c0,0-9.531,63.118,56.061,63.118"/>
		</g>
	</g>
	<g>
		<path style="fill:none;stroke:#FFFFFF;stroke-linecap:round;stroke-linejoin:round;stroke-miterlimit:10;" d="M469.683,498.206
			c-5.876-16.021-8.443-31.537-8.443-49.595c0-82.425,66.819-149.243,149.243-149.243c63.718,0,118.11,39.931,139.517,96.133"/>
		
			<linearGradient id="SVGID_00000183955562358872079590000007031270298944688265_" gradientUnits="userSpaceOnUse" x1="471.9573" y1="355.5822" x2="482.2008" y2="487.6096">
			<stop  offset="0.0168" style="stop-color:#F81F13"/>
			<stop  offset="1" style="stop-color:#5B0020"/>
		</linearGradient>
		<path style="fill:url(#SVGID_00000183955562358872079590000007031270298944688265_);" d="M209.647,500
			c0,0,17.129-80.223,84.187-80.223S446.886,516.91,495.6,465.36s94.364-157.24,254.4-51.419L750,500H209.647z"/>
		
			<linearGradient id="SVGID_00000181770376867741653590000010081130916968811434_" gradientUnits="userSpaceOnUse" x1="392.13" y1="400.6684" x2="392.7581" y2="513.0923">
			<stop  offset="0.0168" style="stop-color:#F81F13"/>
			<stop  offset="1" style="stop-color:#5B0020"/>
		</linearGradient>
		<path style="fill:url(#SVGID_00000181770376867741653590000010081130916968811434_);" d="M34.447,500
			c0,0,72.827-118.996,207.739-64.164c81.787,33.24,136.646,4.18,188.599-19.357c79.314-35.933,146.366,71.195,190.427,24.541
			C665.274,394.366,674.031,320.498,750,334.753V500H107.274L34.447,500z"/>
		<g style="opacity:0.25;">
			<path style="fill:#5B0020;" d="M68.355,500c0,0,56.514-83.521,168.101-38.546c129.82,52.323,147.551-23.867,211.03-32.659
				c56.496-7.826,159.432,80.569,203.494,33.916s23.051-112.234,99.02-97.978V500H107.274L68.355,500z"/>
		</g>
		<path style="fill:none;stroke:#FFFFFF;stroke-linecap:round;stroke-linejoin:round;stroke-miterlimit:10;" d="M21.512,500
			c0,0,35.456-80.223,119.56-95.747C224.29,388.892,305.65,500,461.243,500"/>
	</g>
</g>
</svg>
